<?xml version="1.0" encoding="UTF-8"?>
<svg version="1.1" xmlns="http://www.w3.org/2000/svg" viewBox="120 60 800 840" width="512" height="512">
<path d="M0 0 C23.39775487 -0.3969679 46.7379807 2.09001831 69.82910156 5.62402344 C72.1354278 5.96777748 74.44503427 6.28996336 76.75683594 6.59472656 C83.80601296 7.52991865 90.48972106 8.79723683 97.2890625 10.87109375 C98.16651123 11.12914795 99.04395996 11.38720215 99.94799805 11.65307617 C104.53381653 13.00733529 109.10508467 14.40819596 113.67578125 15.8125 C114.56571777 16.08416992 115.4556543 16.35583984 116.37255859 16.63574219 C118.05602853 17.15154753 119.73751421 17.67389429 121.41650391 18.20410156 C126.34725485 19.72332267 131.02574184 20.62308092 136.1640625 21.12109375 C136.1640625 21.78109375 136.1640625 22.44109375 136.1640625 23.12109375 C136.82075928 23.36118164 137.47745605 23.60126953 138.15405273 23.84863281 C173.18041784 36.74877178 207.31540705 53.48945881 237.1640625 76.12109375 C238.51943709 77.13293864 239.87491393 78.14464657 241.23046875 79.15625 C249.61111635 85.44872423 257.52002855 91.94532016 265.1640625 99.12109375 C266.59494066 100.39937826 268.0319182 101.67088774 269.4765625 102.93359375 C270.10175781 103.48015625 270.72695313 104.02671875 271.37109375 104.58984375 C273.10873743 106.07384446 274.88146748 107.50419354 276.6640625 108.93359375 C277.4890625 109.65546875 278.3140625 110.37734375 279.1640625 111.12109375 C279.1640625 111.78109375 279.1640625 112.44109375 279.1640625 113.12109375 C279.8240625 113.12109375 280.4840625 113.12109375 281.1640625 113.12109375 C282.57421875 114.5546875 282.57421875 114.5546875 284.2265625 116.55859375 C286.86989394 119.67805321 289.60464395 122.58653968 292.5390625 125.43359375 C297.50268245 130.34699158 301.81646052 135.66391117 306.1640625 141.12109375 C307.08826458 142.24479026 308.01411733 143.36713069 308.94140625 144.48828125 C322.58274832 161.08131185 333.76971792 179.07299307 344.65283203 197.56005859 C345.15153809 198.4052002 345.65024414 199.2503418 346.1640625 200.12109375 C346.94112549 201.52222412 346.94112549 201.52222412 347.73388672 202.95166016 C348.20584473 203.66757324 348.67780273 204.38348633 349.1640625 205.12109375 C349.8240625 205.12109375 350.4840625 205.12109375 351.1640625 205.12109375 C351.24785156 206.10464844 351.33164062 207.08820313 351.41796875 208.1015625 C352.07887865 212.67753313 354.01539517 216.35230624 356.1015625 220.43359375 C380.03959654 269.28306763 392.48761015 325.72778939 392.2890625 380.05859375 C392.28817627 380.76644012 392.28729004 381.4742865 392.28637695 382.20358276 C392.26980954 393.56771295 391.96182747 404.89945213 391.3828125 416.25 C391.1673325 420.54697421 391.12390447 424.81916464 391.1640625 429.12109375 C390.1740625 429.61609375 390.1740625 429.61609375 389.1640625 430.12109375 C388.53888448 432.53554737 388.53888448 432.53554737 388.15625 435.5078125 C387.97868164 436.65854248 387.80111328 437.80927246 387.61816406 438.99487305 C387.42706055 440.25340088 387.23595703 441.51192871 387.0390625 442.80859375 C375.14286519 515.80181353 340.63668895 582.4992821 291.15625 636.91015625 C289.3915912 638.8685815 287.68144114 640.86086371 285.9765625 642.87109375 C282.55197453 646.79976827 278.9022526 650.49188229 275.2265625 654.18359375 C274.65333252 654.76141602 274.08010254 655.33923828 273.48950195 655.93457031 C247.45695023 681.87516022 216.2479242 702.09403882 184.4140625 720.12109375 C183.73400146 720.5073291 183.05394043 720.89356445 182.35327148 721.29150391 C179.64650042 722.81064868 177.11650487 724.13694629 174.1640625 725.12109375 C172.2772532 725.92253367 170.39659988 726.73850448 168.51953125 727.5625 C133.54123193 742.81654745 98.41338513 753.75297749 60.60083008 759.68041992 C58.03696518 760.08437321 58.03696518 760.08437321 55.1640625 761.12109375 C52.85473727 761.3271302 50.54119867 761.48732737 48.2265625 761.62109375 C47.00066406 761.69328125 45.77476562 761.76546875 44.51171875 761.83984375 C43.8254541 761.88012695 43.13918945 761.92041016 42.43212891 761.96191406 C40.85441138 762.072643 39.27839158 762.20936193 37.70458984 762.36621094 C27.70252323 763.3453848 17.70484209 763.36271555 7.6640625 763.37109375 C6.71474854 763.37243317 5.76543457 763.37377258 4.78735352 763.37515259 C-15.66913237 763.36891533 -35.65272903 761.64524685 -55.80664062 758.03588867 C-59.33217534 757.41775929 -62.65887347 757.07671342 -66.2265625 757.1640625 C-69.8359375 757.12109375 -69.8359375 757.12109375 -71.8359375 755.12109375 C-74.26007347 754.35186801 -74.26007347 754.35186801 -77.13671875 753.74609375 C-78.2453125 753.48812012 -79.35390625 753.23014648 -80.49609375 752.96435547 C-81.70136719 752.6860791 -82.90664063 752.40780273 -84.1484375 752.12109375 C-94.74038648 749.57908105 -105.04792664 746.57616343 -115.3359375 742.99609375 C-116.50809814 742.58875 -117.68025879 742.18140625 -118.88793945 741.76171875 C-125.44759504 739.43689619 -131.84943787 736.89866527 -138.19726562 734.04345703 C-140.92722348 733.0891842 -142.96817646 732.93877681 -145.8359375 733.12109375 C-145.8359375 732.13109375 -145.8359375 731.14109375 -145.8359375 730.12109375 C-146.41601562 729.93933594 -146.99609375 729.75757813 -147.59375 729.5703125 C-151.3020515 728.37704717 -154.6917292 727.19727927 -158.1484375 725.37109375 C-160.69057952 723.84017657 -160.69057952 723.84017657 -162.9609375 724.68359375 C-163.5796875 724.82796875 -164.1984375 724.97234375 -164.8359375 725.12109375 C-167.0859375 723.30859375 -167.0859375 723.30859375 -168.8359375 721.12109375 C-168.8359375 720.46109375 -168.8359375 719.80109375 -168.8359375 719.12109375 C-171.5273135 718.0128801 -174.17025649 717.02079805 -176.9609375 716.18359375 C-179.90499354 715.09557304 -180.71080261 714.27895863 -182.8359375 712.12109375 C-184.13881673 711.23013936 -185.46976051 710.37938636 -186.8203125 709.5625 C-187.59117187 709.09392578 -188.36203125 708.62535156 -189.15625 708.14257812 C-190.35894531 707.42038086 -190.35894531 707.42038086 -191.5859375 706.68359375 C-192.37226563 706.20599609 -193.15859375 705.72839844 -193.96875 705.23632812 C-197.51585871 703.08861861 -201.07494364 700.97333701 -204.6875 698.9375 C-207.09262665 697.54992693 -209.27282951 696.18643309 -211.4609375 694.49609375 C-212.11707031 693.99464844 -212.77320313 693.49320313 -213.44921875 692.9765625 C-214.77114692 691.94887693 -216.09252735 690.92048136 -217.41162109 689.88916016 C-218.56871209 688.98474073 -219.72694018 688.08177442 -220.88623047 687.18017578 C-222.04590316 686.27756548 -223.20257464 685.3710837 -224.35595703 684.46044922 C-226.848704 682.51914853 -228.81258608 681.12887756 -231.8359375 680.12109375 C-232.96497846 678.71834589 -234.09281472 677.31461284 -235.21484375 675.90625 C-237.09623054 673.8344578 -239.1251648 672.21239865 -241.3359375 670.49609375 C-277.44560417 642.29209375 -277.44560417 642.29209375 -281.8359375 629.12109375 C-282.8259375 628.79109375 -283.8159375 628.46109375 -284.8359375 628.12109375 C-286.0546875 626.765625 -286.0546875 626.765625 -287.3359375 624.93359375 C-289.67020569 621.69091577 -292.08160747 618.5345483 -294.57788086 615.41455078 C-299.90379441 608.74893259 -304.90982769 601.90286962 -309.77587891 594.89477539 C-311.82013494 591.95393419 -313.85886668 589.09291242 -316.12109375 586.3125 C-317.8359375 584.12109375 -317.8359375 584.12109375 -318.8359375 581.12109375 C-319.45434402 579.9190828 -320.10195791 578.73178261 -320.7734375 577.55859375 C-321.11246094 576.95917969 -321.45148438 576.35976563 -321.80078125 575.7421875 C-322.86296655 573.95045826 -322.86296655 573.95045826 -324.8359375 572.12109375 C-326.2768521 569.15941537 -327.67754384 566.18945385 -329.00585938 563.17578125 C-330.50112973 560.00620594 -331.41854529 558.34083672 -334.56640625 556.68359375 C-335.31535156 556.49796875 -336.06429687 556.31234375 -336.8359375 556.12109375 C-336.62066406 555.40308594 -336.40539062 554.68507813 -336.18359375 553.9453125 C-335.75085175 550.42989156 -336.56510742 548.9937731 -338.2734375 545.93359375 C-340.8359375 541.2764071 -340.8359375 541.2764071 -340.8359375 539.12109375 C-341.8259375 539.12109375 -342.8159375 539.12109375 -343.8359375 539.12109375 C-344.00706055 537.59597168 -344.00706055 537.59597168 -344.18164062 536.04003906 C-344.82476527 532.18801039 -345.851167 529.03300144 -347.3046875 525.41796875 C-347.54505737 524.81349915 -347.78542725 524.20902954 -348.03308105 523.58624268 C-348.79352268 521.67822662 -349.56437479 519.77463607 -350.3359375 517.87109375 C-350.85359002 516.57971764 -351.37052347 515.28805305 -351.88671875 513.99609375 C-352.83018866 511.63617429 -353.77709011 509.27762176 -354.72851562 506.92089844 C-355.48507593 505.00814853 -356.18547646 503.07247688 -356.8359375 501.12109375 C-357.4959375 501.45109375 -358.1559375 501.78109375 -358.8359375 502.12109375 C-359.9609375 497.37109375 -359.9609375 497.37109375 -358.8359375 495.12109375 C-359.37277274 492.64301443 -359.37277274 492.64301443 -360.3125 489.79296875 C-360.65144287 488.69291504 -360.99038574 487.59286133 -361.33959961 486.45947266 C-361.70964111 485.27530762 -362.07968262 484.09114258 -362.4609375 482.87109375 C-366.16790804 470.72547128 -369.2519645 458.55050341 -371.8359375 446.12109375 C-372.01382813 445.28449219 -372.19171875 444.44789063 -372.375 443.5859375 C-377.43223091 416.54260952 -378.26132645 388.86852092 -377.5234375 361.43359375 C-377.50051636 360.56687042 -377.47759521 359.70014709 -377.45397949 358.80715942 C-377.38515103 356.36587435 -377.3068135 353.92517574 -377.22265625 351.484375 C-377.19956894 350.75075745 -377.17648163 350.01713989 -377.1526947 349.2612915 C-376.95435876 344.23951501 -376.95435876 344.23951501 -375.8359375 343.12109375 C-375.59766629 341.78467039 -375.415592 340.43814127 -375.2578125 339.08984375 C-375.09877441 337.79977417 -375.09877441 337.79977417 -374.93652344 336.48364258 C-374.82083008 335.53900146 -374.70513672 334.59436035 -374.5859375 333.62109375 C-372.12319565 314.77556355 -368.15338414 296.37555022 -363.07128906 278.06567383 C-361.58164325 272.59110147 -360.42084752 267.80212917 -360.8359375 262.12109375 C-360.1759375 262.45109375 -359.5159375 262.78109375 -358.8359375 263.12109375 C-357.83016737 260.35223252 -356.83113603 257.58125271 -355.8359375 254.80859375 C-355.54976562 254.02291016 -355.26359375 253.23722656 -354.96875 252.42773438 C-354.56269531 251.29174805 -354.56269531 251.29174805 -354.1484375 250.1328125 C-353.89707031 249.43631592 -353.64570313 248.73981934 -353.38671875 248.0222168 C-352.69680214 245.97072575 -352.69680214 245.97072575 -352.8359375 243.12109375 C-352.1759375 243.12109375 -351.5159375 243.12109375 -350.8359375 243.12109375 C-350.68608398 242.54713867 -350.53623047 241.97318359 -350.38183594 241.38183594 C-348.32991158 234.01767498 -345.34429221 227.27324886 -342.0859375 220.37109375 C-341.54952637 219.22455322 -341.01311523 218.0780127 -340.46044922 216.89672852 C-338.92846572 213.63357128 -337.38513961 210.37610553 -335.8359375 207.12109375 C-335.45791992 206.32364746 -335.07990234 205.52620117 -334.69042969 204.70458984 C-331.6411411 198.30590958 -328.38835407 192.35753238 -324.41943359 186.49243164 C-322.89031134 184.20252038 -321.42353496 181.88548362 -319.9765625 179.54296875 C-314.05178664 169.95438697 -307.88333577 160.91651231 -300.8359375 152.12109375 C-299.95178731 150.97338291 -299.07034739 149.82357991 -298.19140625 148.671875 C-292.24985773 140.92040323 -285.91695783 133.69566047 -279.21435547 126.59667969 C-277.19296713 124.43279887 -275.23562641 122.21361206 -273.2734375 119.99609375 C-247.36793909 91.13398954 -214.87027215 67.67736373 -180.89453125 49.24072266 C-179.48762267 48.47553258 -178.0841096 47.70407487 -176.68359375 46.92724609 C-123.10707195 17.23182331 -61.00968368 1.92596761 0 0 Z M-342.8359375 536.12109375 C-341.8359375 538.12109375 -341.8359375 538.12109375 -341.8359375 538.12109375 Z " fill="#2E40BB" transform="translate(504.8359375,106.87890625)"/>
<path d="M0 0 C73.59 0 147.18 0 223 0 C223 76.23 223 152.46 223 231 C217.16813155 229.54203289 212.74200999 228.17950858 207.625 225.375 C206.65228149 224.84712891 206.65228149 224.84712891 205.65991211 224.30859375 C199.93247986 221.11492695 194.86824581 217.40213717 190 213 C189.29359375 212.36320313 188.5871875 211.72640625 187.859375 211.0703125 C166.18041347 190.46702463 163.09008685 162.25619865 162 134 C161.45472656 134.67804688 160.90945313 135.35609375 160.34765625 136.0546875 C155.78641825 141.68411286 151.11664618 147.13071213 146.234375 152.484375 C143.98818434 155.01330295 141.86468782 157.61049914 139.75 160.25 C135.09341188 166.00946426 130.07165823 171.37948699 125.0078125 176.77734375 C122.1552359 179.82061941 119.3907379 182.92944134 116.6640625 186.0859375 C113.16707067 190.108299 109.57140635 194.04379566 106 198 C104.49971321 199.66640851 102.99971128 201.33307353 101.5 203 C100.75492188 203.82757813 100.00984375 204.65515625 99.2421875 205.5078125 C97.76707382 207.14739879 96.29308348 208.78799655 94.8203125 210.4296875 C93.32793559 212.0920148 91.83304939 213.75209205 90.3359375 215.41015625 C88.7931617 217.12062507 87.25656196 218.83668714 85.7265625 220.55859375 C79.51629131 227.46433695 73.04121985 234.09501486 66.5 240.6875 C65.63407227 241.56639893 64.76814453 242.44529785 63.87597656 243.35083008 C58.62874124 248.60547117 53.20157256 253.4448184 47.39111328 258.0703125 C45.30786845 259.75154255 43.33088055 261.48671581 41.375 263.3125 C30.94408269 272.5062124 18.86001775 280.10302987 6.80322266 286.97070312 C5.05152303 287.97059016 3.31262461 288.99280012 1.57421875 290.015625 C-28.55388258 307.29279712 -60.84904288 312.56062943 -95 312 C-93.75448401 308.74010898 -92.37315322 305.71709976 -90.63671875 302.69140625 C-90.16886963 301.87357666 -89.70102051 301.05574707 -89.21899414 300.21313477 C-88.71360107 299.33842529 -88.20820801 298.46371582 -87.6875 297.5625 C-87.15697021 296.63945068 -86.62644043 295.71640137 -86.07983398 294.76538086 C-80.67544702 285.38790214 -75.16657755 276.07259023 -69.64111328 266.76611328 C-67.46343125 263.09560786 -65.29244743 259.42116614 -63.12207031 255.74633789 C-62.04245221 253.91842939 -60.96237552 252.09079167 -59.88183594 250.26342773 C-57.12973854 245.608999 -54.38278754 240.95164927 -51.64453125 236.2890625 C-48.44748218 230.84871569 -45.22984503 225.42093022 -42 220 C-41.52369141 219.19643066 -41.04738281 218.39286133 -40.55664062 217.56494141 C-39.23732128 215.348243 -37.90290639 213.14149449 -36.5625 210.9375 C-36.18585205 210.30086426 -35.8092041 209.66422852 -35.42114258 209.00830078 C-31.05692591 201.92332052 -24.51591348 197.87924625 -17.8125 193.25 C-7.47953955 186.02213237 2.01285815 178.11364885 11.2421875 169.5390625 C13.39704597 167.55512764 15.57543102 165.63843486 17.8125 163.75 C26.51522578 156.19910557 34.84183748 147.81140022 42.2734375 139.0078125 C44.1114708 136.87037106 46.01795214 134.80336927 47.93603516 132.73779297 C52.67577362 127.63135605 57.18320513 122.40956782 61.5546875 116.98046875 C64.47004967 113.42708003 67.47845178 109.96306886 70.5 106.5 C75.78573956 100.42700641 81.01060487 94.32115097 86 88 C87.15242188 86.54207031 87.15242188 86.54207031 88.328125 85.0546875 C89.06546875 84.08789062 89.8028125 83.12109375 90.5625 82.125 C91.22378906 81.26132812 91.88507813 80.39765625 92.56640625 79.5078125 C94.15648192 76.72626323 94.31038969 75.1490445 94 72 C92.75347656 71.97421875 91.50695312 71.9484375 90.22265625 71.921875 C62.7958109 71.1112961 38.3339284 63.3483003 19 43 C8.8378811 31.47871745 0 15.7037209 0 0 Z " fill="#FDFDFE" transform="translate(556,270)"/>
<path d="M0 0 C-1.44521908 3.00898207 -2.91484911 5.19256698 -5.23046875 7.609375 C-5.86919922 8.28226562 -6.50792969 8.95515625 -7.16601562 9.6484375 C-7.83310547 10.34195312 -8.50019531 11.03546875 -9.1875 11.75 C-14.75331619 17.57189756 -14.75331619 17.57189756 -20.0859375 23.60546875 C-25.24797126 29.55723024 -30.90183416 35.05040077 -36.47875977 40.60913086 C-38.43295624 42.5579687 -40.38175147 44.51209272 -42.33007812 46.46679688 C-48.38193351 52.52217878 -54.42815815 58.50303334 -61 64 C-62.0101886 64.87636768 -63.01935234 65.75391852 -64.02734375 66.6328125 C-70.87359037 72.49577269 -77.89079525 78.06891246 -85.08764648 83.49658203 C-86.44445709 84.52048711 -87.79714609 85.54988116 -89.14526367 86.58520508 C-90.78120053 87.83309952 -92.44345805 89.04632575 -94.109375 90.25390625 C-98.09166993 94.03708643 -100.5607169 98.33953018 -103.3125 103.0625 C-104.54509728 105.13439762 -105.77819271 107.20599894 -107.01171875 109.27734375 C-107.65802246 110.37030762 -108.30432617 111.46327148 -108.97021484 112.58935547 C-111.04546029 116.07638685 -113.15048241 119.54341734 -115.26953125 123.00390625 C-122.15028526 134.24759781 -128.93639984 145.52349866 -135.41381836 157.00634766 C-139.52684978 164.2597482 -143.8405904 171.38538692 -148.1875 178.5 C-155.96351564 191.229279 -163.53385286 204.07069827 -171.05097961 216.9541626 C-174.18012927 222.31497322 -177.33661839 227.65934193 -180.5 233 C-184.06781714 239.02544635 -187.62349616 245.05777037 -191.16015625 251.1015625 C-191.51963348 251.71586121 -191.87911072 252.33015991 -192.2494812 252.96307373 C-192.98420168 254.21870358 -193.71891231 255.4743392 -194.45361328 256.72998047 C-199.5928948 265.51269803 -204.74457855 274.28603074 -210 283 C-220.71225919 300.7717219 -231.1898607 318.69145942 -241.421875 336.74389648 C-241.86917969 337.53223877 -242.31648438 338.32058105 -242.77734375 339.1328125 C-243.35343384 340.15205811 -243.35343384 340.15205811 -243.94116211 341.19189453 C-244.90106514 342.83105567 -245.94632321 344.41948481 -247 346 C-250.08012614 346.28601949 -252.95822922 346.37789828 -256.03955078 346.34057617 C-257.44450302 346.34123329 -257.44450302 346.34123329 -258.87783813 346.34190369 C-261.98387259 346.33980819 -265.08937196 346.31644122 -268.1953125 346.29296875 C-270.34479477 346.28737551 -272.49428086 346.28310413 -274.64376831 346.28010559 C-280.30904649 346.26863547 -285.97409498 346.2391496 -291.63928223 346.20599365 C-297.41704195 346.17533946 -303.19483869 346.16161021 -308.97265625 346.14648438 C-320.31520524 346.11428202 -331.65758354 346.0630595 -343 346 C-341.89796571 343.78095181 -340.79429627 341.56274186 -339.68969727 339.3449707 C-339.38126137 338.72348396 -339.07282547 338.10199722 -338.75504303 337.46167755 C-335.99744556 331.93048899 -333.015979 326.54647869 -329.9375 321.1875 C-328.80026556 319.19170001 -327.66356575 317.19559531 -326.52734375 315.19921875 C-325.65698486 313.67240479 -325.65698486 313.67240479 -324.76904297 312.11474609 C-321.82087004 306.92391112 -318.91140217 301.71151926 -316 296.5 C-311.56640207 288.56911845 -307.10809098 280.65299559 -302.625 272.75 C-298.04641961 264.67762786 -293.55024477 256.56226518 -289.08560181 248.42657471 C-283.27814319 237.84548038 -277.34520489 227.3585177 -271.21899414 216.95727539 C-266.20054168 208.41161247 -261.39818344 199.75412853 -256.61181641 191.0769043 C-252.44867337 183.55072397 -248.1749191 176.09975193 -243.8125 168.6875 C-238.88158747 160.3082433 -234.15061712 151.84603401 -229.53833008 143.2878418 C-225.34101035 135.53686079 -220.92882415 127.92245445 -216.421875 120.34765625 C-210.3267288 110.03620747 -204.7509925 99.54348625 -199 89 C-237.28 88.67 -275.56 88.34 -315 88 C-313.51425909 84.28564772 -312.02385006 81.06842028 -310.09375 77.60546875 C-309.51979492 76.57518555 -308.94583984 75.54490234 -308.35449219 74.48339844 C-307.74250977 73.39575195 -307.13052734 72.30810547 -306.5 71.1875 C-305.55495605 69.50769043 -305.55495605 69.50769043 -304.59082031 67.79394531 C-287.97046363 38.41862789 -270.47516795 11.69297741 -236.34217644 1.95661354 C-231.98576645 0.88429187 -227.86265668 0.71015451 -223.3923645 0.7215271 C-222.56266203 0.7157347 -221.73295955 0.7099423 -220.87811458 0.70397437 C-218.11678228 0.68706362 -215.35561806 0.68410529 -212.59423828 0.68115234 C-210.60570878 0.67184616 -208.61718316 0.66167647 -206.62866211 0.65071106 C-201.23500837 0.62342734 -195.84138078 0.60825845 -190.44767618 0.59528303 C-184.77700773 0.57959168 -179.10639153 0.55280471 -173.4357605 0.5272522 C-162.67223411 0.48044799 -151.90869757 0.44373599 -141.14512146 0.41057932 C-128.99712048 0.37263925 -116.84917619 0.32302545 -104.7012217 0.27259517 C-28.68058579 -0.04130081 -28.68058579 -0.04130081 0 0 Z " fill="#FEFEFE" transform="translate(599,369)"/>
<path d="M0 0 C0.66 0.33 1.32 0.66 2 1 C-6.47344318 16.77950871 -15.12824127 32.44124528 -24 48 C-24.96206797 49.69089986 -25.92413391 51.38180087 -26.8861084 53.07275391 C-34.11456804 65.77501219 -41.39709468 78.44384579 -48.77880859 91.05786133 C-52.42785189 97.2953962 -56.05094191 103.54717073 -59.6550293 109.81079102 C-62.16004825 114.1632334 -64.67236523 118.511436 -67.18603516 122.85888672 C-68.37571287 124.91896659 -69.56297319 126.98044478 -70.74755859 129.04345703 C-79.86054986 144.8977084 -89.30946505 159.73852074 -102 173 C-102.804375 173.845625 -103.60875 174.69125 -104.4375 175.5625 C-105.283125 176.366875 -106.12875 177.17125 -107 178 C-108.02287109 178.99773437 -108.02287109 178.99773437 -109.06640625 180.015625 C-127.79077145 197.68805957 -154.75490292 208.2191503 -180.49365234 208.11352539 C-181.43087128 208.11367142 -182.36809021 208.11381744 -183.33370972 208.1139679 C-186.41780955 208.1132737 -189.50184827 208.10550444 -192.5859375 208.09765625 C-194.72970547 208.09579032 -196.87347388 208.09436724 -199.01724243 208.09336853 C-204.64948715 208.08955716 -210.28170593 208.07973866 -215.91394043 208.06866455 C-221.66527963 208.05842074 -227.41662304 208.05386455 -233.16796875 208.04882812 C-244.44532387 208.03811515 -255.72265978 208.02105531 -267 208 C-265.73767254 205.62094832 -264.47396458 203.24264702 -263.20947266 200.86474609 C-262.67925255 199.86494972 -262.67925255 199.86494972 -262.13832092 198.84495544 C-259.03509634 193.01360662 -255.74247647 187.30761654 -252.375 181.625 C-247.48135792 173.30474923 -242.6918835 164.93562516 -238 156.5 C-234.51440505 150.23472246 -231.00955138 143.98470411 -227.39453125 137.79296875 C-226.80381836 136.77920166 -226.21310547 135.76543457 -225.60449219 134.72094727 C-224.41547499 132.70820357 -223.20655767 130.70707629 -221.97753906 128.71850586 C-219.04382408 123.90690853 -216.71001007 119.51747576 -215.15234375 114.0859375 C-213.25162672 108.15094089 -211.58392703 103.27391846 -206 100 C-195.04530074 97.12266562 -182.7669134 98.38681833 -171.56881714 98.79675293 C-135.1377258 100.08673108 -96.10691949 84.19559109 -67 63 C-66.01 62.28199219 -65.02 61.56398438 -64 60.82421875 C-49.28740888 49.95866995 -35.8115122 38.03282431 -23 25 C-20.29927203 22.28579086 -17.58295178 19.5893317 -14.84375 16.9140625 C-13.72910234 15.81777374 -12.6145199 14.72141865 -11.5 13.625 C-10.94441406 13.08617187 -10.38882812 12.54734375 -9.81640625 11.9921875 C-6.04210984 8.26229458 -2.98033263 4.39265443 0 0 Z " fill="#FDFDFE" transform="translate(649,507)"/>
<path d="M0 0 C0 4.18433005 -2.28967332 6.3252913 -4.75 9.5 C-14.67069871 22.67293431 -23.09434095 36.78526065 -31.01953125 51.22851562 C-32.64790584 54.17061871 -34.32523012 57.08410601 -36 60 C-37.29981396 57.02584942 -36.98113458 55.95160084 -35.77734375 52.86328125 C-35.17019531 51.69152344 -34.56304687 50.51976562 -33.9375 49.3125 C-33.34839844 48.15363281 -32.75929687 46.99476563 -32.15234375 45.80078125 C-30.16583074 42.15996415 -27.88123883 38.75359958 -25.55493164 35.32299805 C-24.03360025 33.05019727 -22.57774559 30.74867708 -21.140625 28.421875 C-5.17492547 2.58746274 -5.17492547 2.58746274 0 0 Z " fill="#2C39A7" transform="translate(206,258)"/>
<path d="M0 0 C3.34249629 0.59687434 5.46436342 1.73603877 8 4 C8 4.66 8 5.32 8 6 C8.66 6 9.32 6 10 6 C11.41015625 7.43359375 11.41015625 7.43359375 13.0625 9.4375 C15.70583144 12.55695946 18.44058145 15.46544593 21.375 18.3125 C26.33815596 23.22526859 30.67735656 28.52321793 35 34 C35.94102891 35.16176408 36.88244955 36.32321094 37.82421875 37.484375 C38.75872011 38.65552636 39.69233084 39.82738901 40.625 41 C41.30067017 41.82806152 41.30067017 41.82806152 41.98999023 42.67285156 C43.2265625 44.25 43.2265625 44.25 45 47 C44.67 47.99 44.34 48.98 44 50 C43.35675781 49.16339844 42.71351563 48.32679688 42.05078125 47.46484375 C35.00542738 38.36536607 27.61899328 29.62259014 20 21 C19.53190918 20.46729492 19.06381836 19.93458984 18.58154297 19.38574219 C14.32866716 14.03526071 14.32866716 14.03526071 9 10 C9 9.34 9 8.68 9 8 C8.34 8 7.68 8 7 8 C4.26602464 5.47107279 2.06936578 3.10404867 0 0 Z " fill="#2735A5" transform="translate(776,214)"/>
<path d="M0 0 C20.13 0 40.26 0 61 0 C61 0.33 61 0.66 61 1 C54.54042075 2.63848774 48.68095904 3.29671575 42.03125 3.265625 C41.11089966 3.26753845 40.19054932 3.2694519 39.24230957 3.27142334 C37.30948613 3.27277554 35.3766533 3.2691471 33.44384766 3.26074219 C30.50792785 3.25002893 27.57261983 3.26067058 24.63671875 3.2734375 C22.7473945 3.27211573 20.85807063 3.26955299 18.96875 3.265625 C17.66991882 3.27169769 17.66991882 3.27169769 16.34484863 3.27789307 C10.62459678 3.23450532 5.54787851 2.40723266 0 1 C0 0.67 0 0.34 0 0 Z " fill="#2E39A8" transform="translate(481,867)"/>
<path d="M0 0 C0.33 0 0.66 0 1 0 C0.48043326 6.45930503 -0.7184264 11.98875328 -2.9375 18.0625 C-3.38851074 19.31897339 -3.38851074 19.31897339 -3.84863281 20.60083008 C-6.49697695 27.85594102 -9.33750323 35.03485279 -12.25 42.1875 C-12.674021 43.24525635 -13.09804199 44.3030127 -13.53491211 45.39282227 C-13.94104736 46.37049561 -14.34718262 47.34816895 -14.765625 48.35546875 C-15.12430664 49.22840576 -15.48298828 50.10134277 -15.85253906 51.00073242 C-17 53 -17 53 -20 54 C-18.10905132 48.02072598 -15.90128348 42.29800051 -13.375 36.5625 C-8.21969572 24.62860766 -4.13040768 12.31767179 0 0 Z " fill="#2633A5" transform="translate(879,593)"/>
<path d="M0 0 C4.26121901 1.50736999 6.10276696 4.60536339 8.4375 8.25 C8.85781494 8.89316162 9.27812988 9.53632324 9.71118164 10.19897461 C30 41.63839558 30 41.63839558 30 47 C29.34 47 28.68 47 28 47 C27.41734375 45.92105469 26.8346875 44.84210938 26.234375 43.73046875 C21.63765297 35.29554085 16.87500336 27.00144461 11.75 18.875 C11.26756836 18.10696045 10.78513672 17.3389209 10.28808594 16.54760742 C7.4325946 12.06479831 4.40579418 7.80465396 1.11035156 3.63330078 C0 2 0 2 0 0 Z " fill="#2533A4" transform="translate(824,268)"/>
<path d="M0 0 C3.69768488 1.65727563 6.82015976 3.98222199 10.0625 6.375 C18.7525846 12.69872596 27.8679459 18.34263829 37 24 C34.54322595 24.90575953 33.44833203 25.20263813 31.01708984 24.10375977 C30.33855957 23.63768311 29.6600293 23.17160645 28.9609375 22.69140625 C28.21585937 22.19189453 27.47078125 21.69238281 26.703125 21.17773438 C25.93484375 20.64470703 25.1665625 20.11167969 24.375 19.5625 C22.84372952 18.51833632 21.30999117 17.47777969 19.7734375 16.44140625 C19.09716309 15.97420166 18.42088867 15.50699707 17.72412109 15.02563477 C16.04787665 13.82958241 16.04787665 13.82958241 14 14 C12.84499263 12.84499263 11.69462658 11.68490586 10.5703125 10.5 C8.14985955 8.18792554 5.41555623 6.33788685 2.671875 4.4296875 C1 3 1 3 0 0 Z " fill="#2A36A8" transform="translate(282,790)"/>
<path d="M0 0 C0 0.33 0 0.66 0 1 C-6.38226945 1.82351864 -12.56744599 2.12086218 -19 2 C-19 1.67 -19 1.34 -19 1 C-37.315 0.505 -37.315 0.505 -56 0 C-56 -0.33 -56 -0.66 -56 -1 C-37.46324767 -3.54346217 -18.57517904 -1.32390623 0 0 Z " fill="#4350B7" transform="translate(549,109)"/>
<path d="M0 0 C3.02459059 2.19970225 5.53478351 4.53320842 7.9375 7.375 C13.54809456 13.96243915 19.84796196 19.92475578 26 26 C25.01 26.33 24.02 26.66 23 27 C19.91251204 23.94166467 16.83076054 20.87761081 13.75 17.8125 C12.87730469 16.94818359 12.00460938 16.08386719 11.10546875 15.19335938 C10.26113281 14.35224609 9.41679687 13.51113281 8.546875 12.64453125 C7.77182617 11.87471924 6.99677734 11.10490723 6.19824219 10.31176758 C0 3.79342514 0 3.79342514 0 0 Z " fill="#2B36A5" transform="translate(227,739)"/>
<path d="M0 0 C0.5775 0.226875 1.155 0.45375 1.75 0.6875 C-3.5 4.625 -3.5 4.625 -5.12304688 5.84008789 C-7.94891198 7.9566015 -10.76930774 10.07965073 -13.578125 12.21875 C-14.62484375 13.0128125 -15.6715625 13.806875 -16.75 14.625 C-17.7090625 15.35589844 -18.668125 16.08679688 -19.65625 16.83984375 C-21.81594999 18.37830474 -23.84083379 19.60223881 -26.25 20.6875 C-24.82614017 17.28996849 -23.17448457 15.55924992 -20.2578125 13.33984375 C-19.47019531 12.73462891 -18.68257813 12.12941406 -17.87109375 11.50585938 C-17.04738281 10.88517578 -16.22367187 10.26449219 -15.375 9.625 C-14.55902344 9.00044922 -13.74304688 8.37589844 -12.90234375 7.73242188 C-10.69106375 6.04239793 -8.47330992 4.36165394 -6.25 2.6875 C-5.54858887 2.11974854 -4.84717773 1.55199707 -4.12451172 0.96704102 C-2.25 -0.3125 -2.25 -0.3125 0 0 Z " fill="#2936A6" transform="translate(290.25,178.3125)"/>
<path d="M0 0 C0.99 0.33 1.98 0.66 3 1 C1.96552734 2.10794922 1.96552734 2.10794922 0.91015625 3.23828125 C-4.67993469 9.26222402 -10.03440803 15.36349547 -15.125 21.8203125 C-17 24 -17 24 -20 26 C-19.40765865 22.78800819 -18.43256934 21.00359459 -16.26953125 18.57421875 C-15.43518555 17.62579102 -15.43518555 17.62579102 -14.58398438 16.65820312 C-13.99939453 16.00787109 -13.41480469 15.35753906 -12.8125 14.6875 C-11.67300907 13.39988825 -10.53368542 12.11212844 -9.39453125 10.82421875 C-8.83459473 10.19563965 -8.2746582 9.56706055 -7.69775391 8.91943359 C-5.09531061 5.9771832 -2.54833331 2.98916791 0 0 Z " fill="#2633A4" transform="translate(229,229)"/>
<path d="M0 0 C0.33 0.99 0.66 1.98 1 3 C-0.63814084 4.9830126 -1.53795137 5.91800985 -4.11328125 6.375 C-8.73701731 7.37607953 -12.85305739 9.5504265 -17.1171875 11.56054688 C-20.89272513 13.28090978 -23.75078965 14.45645814 -28 14 C-25.31595404 11.8567098 -22.80998885 10.34803669 -19.62890625 9.0625 C-18.39624023 8.55589844 -18.39624023 8.55589844 -17.13867188 8.0390625 C-16.28853516 7.69617188 -15.43839844 7.35328125 -14.5625 7 C-7.04330559 3.98110911 -7.04330559 3.98110911 0 0 Z " fill="#2C38AB" transform="translate(684,826)"/>
<path d="M0 0 C3.73503769 1.57585506 6.25279431 3.92218569 9.1875 6.6875 C13.93189874 11.08117034 18.81814232 15.13599748 24 19 C22.3125 19.8125 22.3125 19.8125 20 20 C17.59765625 17.84375 17.59765625 17.84375 15 15 C12.24101159 12.7145401 9.43525002 10.49822748 6.62109375 8.28125 C4.04003818 6.03484694 2.01038969 3.76251194 0 1 C0 0.67 0 0.34 0 0 Z " fill="#2936A6" transform="translate(254,767)"/>
<path d="M0 0 C2.37583495 2.37583495 3.00438878 4.29762668 4.1640625 7.4453125 C4.56367188 8.52167969 4.96328125 9.59804688 5.375 10.70703125 C5.7875 11.83496094 6.2 12.96289062 6.625 14.125 C7.25535156 15.82849609 7.25535156 15.82849609 7.8984375 17.56640625 C8.93721587 20.37582957 9.97083839 23.1870426 11 26 C8 25 8 25 6.92504883 23.12988281 C6.60560303 22.32905273 6.28615723 21.52822266 5.95703125 20.703125 C5.60576172 19.8265625 5.25449219 18.95 4.89257812 18.046875 C4.53615234 17.12390625 4.17972656 16.2009375 3.8125 15.25 C3.44447266 14.3425 3.07644531 13.435 2.69726562 12.5 C0.97129835 8.11943742 -0.22271987 4.7633485 0 0 Z " fill="#2633A2" transform="translate(151,611)"/>
<path d="M0 0 C-1.14694524 3.44083572 -1.75371496 3.76999159 -4.7109375 5.62890625 C-5.46117187 6.10650391 -6.21140625 6.58410156 -6.984375 7.07617188 C-7.77328125 7.56666016 -8.5621875 8.05714844 -9.375 8.5625 C-10.15617188 9.05685547 -10.93734375 9.55121094 -11.7421875 10.06054688 C-13.19725761 10.98117771 -14.65455716 11.89830078 -16.11474609 12.81079102 C-17.75955106 13.84832598 -19.38191092 14.92127394 -21 16 C-23.1875 15.625 -23.1875 15.625 -25 15 C-24.17757812 14.50371094 -23.35515625 14.00742187 -22.5078125 13.49609375 C-16.13996557 9.62097212 -9.94313277 5.66206789 -3.92578125 1.25 C-2 0 -2 0 0 0 Z " fill="#2733A5" transform="translate(731,799)"/>
<path d="M0 0 C0.33 0 0.66 0 1 0 C1 1.65 1 3.3 1 5 C1.66 5 2.32 5 3 5 C3.36563746 7.68637768 3.71774726 10.37342859 4.0625 13.0625 C4.16626953 13.81466797 4.27003906 14.56683594 4.37695312 15.34179688 C4.98142216 20.15670542 4.90611433 24.22864273 4 29 C3.67 29 3.34 29 3 29 C2.49209841 25.48026001 1.99511477 21.95905958 1.5 18.4375 C1.35691406 17.44685547 1.21382812 16.45621094 1.06640625 15.43554688 C0.34079377 10.23532412 -0.17673411 5.25047582 0 0 Z " fill="#3845AF" transform="translate(129,519)"/>
<path d="M0 0 C0.33 0 0.66 0 1 0 C1 8.25 1 16.5 1 25 C0.67 25 0.34 25 0 25 C-0.66 18.73 -1.32 12.46 -2 6 C-3.32 6.99 -4.64 7.98 -6 9 C-4.47300326 5.56425733 -2.44973747 2.84485642 0 0 Z " fill="#0B14A0" transform="translate(718,403)"/>
<path d="M0 0 C3.98718441 0.63410644 6.75654996 2.63826057 10.0625 4.875 C11.10535156 5.57367188 12.14820313 6.27234375 13.22265625 6.9921875 C15.39265884 8.56093762 17.20938314 10.02970187 19 12 C18.67 12.66 18.34 13.32 18 14 C15.18257063 12.04868413 12.37194335 10.08779256 9.5625 8.125 C8.76005859 7.56941406 7.95761719 7.01382813 7.13085938 6.44140625 C6.36708984 5.90644531 5.60332031 5.37148437 4.81640625 4.8203125 C4.10943604 4.32805176 3.40246582 3.83579102 2.67407227 3.32861328 C1 2 1 2 0 0 Z " fill="#2633A7" transform="translate(729,176)"/>
<path d="M0 0 C0.33 0 0.66 0 1 0 C1.28994872 9.13338455 0.1741788 17.96301675 -1 27 C-1.33 27 -1.66 27 -2 27 C-2.05865035 23.81257885 -2.09381259 20.62529882 -2.125 17.4375 C-2.14175781 16.54224609 -2.15851563 15.64699219 -2.17578125 14.72460938 C-2.21479596 9.39910095 -1.75475782 5.03629311 0 0 Z " fill="#1C2A9F" transform="translate(132,434)"/>
<path d="M0 0 C4.89900151 0.5501155 8.48951337 2.03317639 12.8125 4.375 C13.95332031 4.98085937 15.09414063 5.58671875 16.26953125 6.2109375 C19 8 19 8 20 11 C15.50675151 9.34229667 11.38813854 7.15017838 7.1875 4.875 C6.49462891 4.50246094 5.80175781 4.12992188 5.08789062 3.74609375 C3.39065164 2.83309623 1.69514862 1.91687284 0 1 C0 0.67 0 0.34 0 0 Z " fill="#2532A6" transform="translate(691,154)"/>
<path d="M0 0 C0.33 0 0.66 0 1 0 C1.95261487 4.76307437 2.08333357 9.1666528 2 14 C1.01 14.495 1.01 14.495 0 15 C-0.40729228 17.32156597 -0.74438677 19.6568787 -1 22 C-1.33 22 -1.66 22 -2 22 C-3.47957572 14.06409385 -2.11536025 7.73241853 0 0 Z " fill="#3F4CB5" transform="translate(894,522)"/>
<path d="M0 0 C0.66 0.33 1.32 0.66 2 1 C0.76110404 2.48847937 -0.4915672 3.96550105 -1.75 5.4375 C-2.44609375 6.26121094 -3.1421875 7.08492187 -3.859375 7.93359375 C-6.07751281 10.07482532 -7.05215913 10.50869319 -10 11 C-10.86625 11.53625 -11.7325 12.0725 -12.625 12.625 C-13.40875 13.07875 -14.1925 13.5325 -15 14 C-15.66 13.67 -16.32 13.34 -17 13 C-16.27554688 12.48050781 -15.55109375 11.96101562 -14.8046875 11.42578125 C-9.72795003 7.76376129 -4.73542133 4.09549953 0 0 Z " fill="#151FA6" transform="translate(540,686)"/>
<path d="M0 0 C4.28618073 3.61383865 4.9625353 8.69740265 6 14 C6.20493333 16.73244446 6.15528521 19.25662792 6 22 C3.9282933 18.35118324 2.92431922 14.46766307 1.875 10.4375 C1.69324219 9.76525391 1.51148438 9.09300781 1.32421875 8.40039062 C0.56143029 5.51269145 0 3.0002579 0 0 Z " fill="#2633A2" transform="translate(879,380)"/>
<path d="M0 0 C16.3367052 -0.44219653 16.3367052 -0.44219653 23 4 C15.27577951 3.33742578 7.65199697 2.23535374 0 1 C0 0.67 0 0.34 0 0 Z " fill="#2431A4" transform="translate(565,113)"/>
<path d="M0 0 C4.58716587 4.44381694 8.78762713 9.20228499 13 14 C12.67 14.66 12.34 15.32 12 16 C7.06141488 12.55795583 3.23023505 8.05480586 0 3 C0 2.01 0 1.02 0 0 Z " fill="#2734A4" transform="translate(210,719)"/>
<path d="M0 0 C0.33 0 0.66 0 1 0 C1.50604924 2.39469729 2.00499517 4.79051717 2.5 7.1875 C2.64308594 7.86103516 2.78617188 8.53457031 2.93359375 9.22851562 C3.68069842 12.87509793 4.17352282 16.27648957 4 20 C3.67 19.01 3.34 18.02 3 17 C2.34 17 1.68 17 1 17 C-1.20927172 11.02197063 -0.93213141 6.26039609 0 0 Z " fill="#24309E" transform="translate(133,541)"/>
<path d="M0 0 C0.33 0 0.66 0 1 0 C1.99862699 7.36487404 2.10331031 14.57313685 2 22 C1.67 22 1.34 22 1 22 C0.67 19.03 0.34 16.06 0 13 C-0.99 13.495 -0.99 13.495 -2 14 C-2 11.36 -2 8.72 -2 6 C-1.67 6 -1.34 6 -1 6 C-0.67 4.02 -0.34 2.04 0 0 Z " fill="#4050BD" transform="translate(894,447)"/>
<path d="M0 0 C0 4.18678194 -2.02541079 7.11522797 -4 10.6875 C-4.57234375 11.7403418 -4.57234375 11.7403418 -5.15625 12.81445312 C-6.09859522 14.54601247 -7.04857268 16.27341426 -8 18 C-9.0605479 14.73783077 -9.07054414 14.16554627 -7.63671875 10.80078125 C-6.67185547 9.07408203 -6.67185547 9.07408203 -5.6875 7.3125 C-5.20506836 6.42208008 -5.20506836 6.42208008 -4.71289062 5.51367188 C-2.28578828 1.14289414 -2.28578828 1.14289414 0 0 Z " fill="#2633A2" transform="translate(178,300)"/>
<path d="M0 0 C-5.42002132 3.55688899 -11.37051416 6.6215143 -18 6 C-15.43461521 3.43461521 -12.93954104 2.62642121 -9.5625 1.3125 C-8.40878906 0.85488281 -7.25507812 0.39726563 -6.06640625 -0.07421875 C-3 -1 -3 -1 0 0 Z " fill="#2734A9" transform="translate(653,842)"/>
<path d="M0 0 C4.0081803 3.67416528 6.52591615 7.14346504 9 12 C9 12.66 9 13.32 9 14 C6 13 6 13 4 11 C3.67 10.01 3.34 9.02 3 8 C2.484375 7.175 1.96875 6.35 1.4375 5.5 C0 3 0 3 0 0 Z " fill="#2B37A4" transform="translate(183,680)"/>
<path d="M0 0 C-1.33333333 0.66666667 -2.66666667 1.33333333 -4 2 C-4.5671875 2.3609375 -5.134375 2.721875 -5.71875 3.09375 C-8.88609909 4.35201197 -11.37945723 3.96205428 -14.75 3.625 C-15.92046875 3.51414062 -17.0909375 3.40328125 -18.296875 3.2890625 C-19.18890625 3.19367187 -20.0809375 3.09828125 -21 3 C-21 2.67 -21 2.34 -21 2 C-18.62561751 1.6616656 -16.25065041 1.32920998 -13.875 1 C-12.87726562 0.85691406 -12.87726562 0.85691406 -11.859375 0.7109375 C-7.87371019 0.16388547 -4.02140062 -0.10022182 0 0 Z " fill="#2530A2" transform="translate(568,864)"/>
<path d="M0 0 C2.81962165 2.60614872 4.95334682 5.57433573 7.1875 8.6875 C7.90292969 9.68136719 8.61835938 10.67523437 9.35546875 11.69921875 C9.89816406 12.45847656 10.44085938 13.21773437 11 14 C10.01 14.33 9.02 14.66 8 15 C6.65511867 13.258859 5.32444855 11.50673385 4 9.75 C3.2575 8.77546875 2.515 7.8009375 1.75 6.796875 C0 4 0 4 0 0 Z " fill="#2733A1" transform="translate(197,701)"/>
<path d="M0 0 C1.53445094 3.06890187 0.54984289 5.70094266 0 9 C-1.32 9 -2.64 9 -4 9 C-4.66 10.65 -5.32 12.3 -6 14 C-6.33 13.01 -6.66 12.02 -7 11 C-5.56640625 8.30078125 -5.56640625 8.30078125 -3.5625 5.3125 C-2.57443359 3.82169922 -2.57443359 3.82169922 -1.56640625 2.30078125 C-1.04949219 1.54152344 -0.53257812 0.78226563 0 0 Z " fill="#1B26A8" transform="translate(448,551)"/>
<path d="M0 0 C0.66 0.33 1.32 0.66 2 1 C1.07456291 2.34173403 0.13422595 3.67320159 -0.8125 5 C-1.59560547 6.11375 -1.59560547 6.11375 -2.39453125 7.25 C-2.92433594 7.8275 -3.45414063 8.405 -4 9 C-4.99 9 -5.98 9 -7 9 C-9.15028304 9.94978897 -9.15028304 9.94978897 -11 11 C-7.6381774 6.74828319 -4.25171681 3.3618226 0 0 Z " fill="#1722A6" transform="translate(608,523)"/>
<path d="M0 0 C4.9723422 1.49170266 9.41845739 3.60457417 14 6 C14 6.66 14 7.32 14 8 C12.58208592 7.54554036 11.16571954 7.08625056 9.75 6.625 C8.96109375 6.36976563 8.1721875 6.11453125 7.359375 5.8515625 C5.09724629 5.03509883 3.04993486 4.26080065 1 3 C0.67 2.01 0.34 1.02 0 0 Z " fill="#2C38A8" transform="translate(343,828)"/>
<path d="M0 0 C0.33 0 0.66 0 1 0 C0.9131724 2.12577907 0.8050049 4.25069581 0.6875 6.375 C0.62949219 7.55835938 0.57148438 8.74171875 0.51171875 9.9609375 C0.34285156 10.96382813 0.17398438 11.96671875 0 13 C-0.99 13.66 -1.98 14.32 -3 15 C-2.22095672 4.44191344 -2.22095672 4.44191344 0 0 Z " fill="#2B38A6" transform="translate(134,423)"/>
<path d="M0 0 C0.33 0.66 0.66 1.32 1 2 C-0.26886964 3.12721436 -1.54017562 4.25168658 -2.8125 5.375 C-3.52019531 6.00148437 -4.22789062 6.62796875 -4.95703125 7.2734375 C-7 9 -7 9 -10 11 C-9.42151242 7.74777105 -8.49110446 6.10208864 -6.125 3.8125 C-5.61195313 3.30332031 -5.09890625 2.79414063 -4.5703125 2.26953125 C-3 1 -3 1 0 0 Z " fill="#2734A4" transform="translate(243,217)"/>
<path d="M0 0 C2.4375 1.25 2.4375 1.25 3.4375 4.25 C1.4575 5.24 1.4575 5.24 -0.5625 6.25 C-1.93812854 4.96034824 -3.27016393 3.62310707 -4.5625 2.25 C-4.5625 1.59 -4.5625 0.93 -4.5625 0.25 C-2.5625 -0.75 -2.5625 -0.75 0 0 Z " fill="#3D49B4" transform="translate(340.5625,825.75)"/>
<path d="M0 0 C0.99 0.33 1.98 0.66 3 1 C1.90220176 2.15193623 0.79650554 3.29634937 -0.3125 4.4375 C-0.92738281 5.07558594 -1.54226562 5.71367187 -2.17578125 6.37109375 C-4 8 -4 8 -7 9 C-6.75881648 5.74402242 -5.47775788 4.2723696 -3.125 2.1875 C-2.09375 1.465625 -1.0625 0.74375 0 0 Z " fill="#2734A6" transform="translate(253,206)"/>
<path d="M0 0 C0 0.66 0 1.32 0 2 C2.31 2 4.62 2 7 2 C7 2.33 7 2.66 7 3 C0.8894576 3.11269443 -4.95170514 2.89604368 -11 2 C-11 1.67 -11 1.34 -11 1 C-7.27569643 0.30710631 -3.78916254 -0.11144596 0 0 Z " fill="#434FB6" transform="translate(481,866)"/>
<path d="M0 0 C0.33 0.99 0.66 1.98 1 3 C-1.64 5.97 -4.28 8.94 -7 12 C-7.66 11.67 -8.32 11.34 -9 11 C-6.03 7.37 -3.06 3.74 0 0 Z " fill="#2431A3" transform="translate(815,718)"/>
<path d="M0 0 C0.66 0 1.32 0 2 0 C3.06775224 1.96466413 4.06553465 3.96855359 5 6 C4.67 6.66 4.34 7.32 4 8 C3.34 7.67 2.68 7.34 2 7 C2 7.66 2 8.32 2 9 C1.01 8.67 0.02 8.34 -1 8 C-0.67 5.36 -0.34 2.72 0 0 Z " fill="#313DAB" transform="translate(169,655)"/>
<path d="M0 0 C0 0.33 0 0.66 0 1 C-6.06696699 1.77040851 -11.88514973 2.09706112 -18 2 C-18 1.67 -18 1.34 -18 1 C-11.76647981 -1.3548854 -6.54311329 -0.87557031 0 0 Z " fill="#434FB7" transform="translate(554,867)"/>
<path d="M0 0 C0.33 0.99 0.66 1.98 1 3 C0.67 3.66 0.34 4.32 0 5 C-0.66 5 -1.32 5 -2 5 C-2.33 6.65 -2.66 8.3 -3 10 C-4.32 9.67 -5.64 9.34 -7 9 C-4.69 6.03 -2.38 3.06 0 0 Z " fill="#1824A7" transform="translate(562,661)"/>
<path d="M0 0 C4.37859255 0.50522222 6.81651224 3.17827222 10 6 C9.67 6.99 9.34 7.98 9 9 C7.49704815 7.69088122 5.99770689 6.37761608 4.5 5.0625 C3.6646875 4.33160156 2.829375 3.60070312 1.96875 2.84765625 C1.3190625 2.23792969 0.669375 1.62820312 0 1 C0 0.67 0 0.34 0 0 Z " fill="#2532A5" transform="translate(765,204)"/>
<path d="M0 0 C4.05606165 0.46800711 7.46588679 0.87953208 11 3 C10.67 3.99 10.34 4.98 10 6 C6.7 4.35 3.4 2.7 0 1 C0 0.67 0 0.34 0 0 Z " fill="#2B38A9" transform="translate(658,138)"/>
<path d="M0 0 C0.98484375 0.02707031 1.9696875 0.05414063 2.984375 0.08203125 C3.73203125 0.11683594 4.4796875 0.15164062 5.25 0.1875 C1.98386305 2.10052307 -0.74445248 2.54424661 -4.5 2.8125 C-5.48484375 2.88726562 -6.4696875 2.96203125 -7.484375 3.0390625 C-8.23203125 3.08804688 -8.9796875 3.13703125 -9.75 3.1875 C-6.47698081 0.21840402 -4.36934238 -0.15604794 0 0 Z " fill="#202DA0" transform="translate(445.75,113.8125)"/>
<path d="M0 0 C4.30764815 1.56641751 8.06171464 3.68336156 12 6 C10.4375 6.75 10.4375 6.75 8 7 C5.45280141 5.97667131 3.13666413 4.72727704 1 3 C0.67 2.01 0.34 1.02 0 0 Z " fill="#2935A6" transform="translate(326,819)"/>
<path d="M0 0 C1 3 1 3 0.00390625 5.26171875 C-0.47175781 6.06222656 -0.94742188 6.86273437 -1.4375 7.6875 C-2.14712891 8.89986328 -2.14712891 8.89986328 -2.87109375 10.13671875 C-3.24363281 10.75160156 -3.61617187 11.36648438 -4 12 C-4.66 12 -5.32 12 -6 12 C-4.43358249 7.69235185 -2.31663844 3.93828536 0 0 Z " fill="#2733A3" transform="translate(845,673)"/>
<path d="M0 0 C0.66 0 1.32 0 2 0 C1.39301257 4.12751449 -0.03810791 7.3321148 -2 11 C-2.66 11 -3.32 11 -4 11 C-3.21681311 7.08406554 -1.60820142 3.63593365 0 0 Z " fill="#2B37A7" transform="translate(857,649)"/>
<path d="M0 0 C0.33 0 0.66 0 1 0 C1.08142927 1.7492214 1.13938541 3.49954542 1.1875 5.25 C1.23970703 6.71179688 1.23970703 6.71179688 1.29296875 8.203125 C0.96075202 11.37468742 0.11327721 12.67040307 -2 15 C-1.03644647 4.44191344 -1.03644647 4.44191344 0 0 Z " fill="#1D2A9C" transform="translate(889,550)"/>
<path d="M0 0 C1.21065165 3.63195496 0.62784815 5.06531629 -0.4375 8.6875 C-0.86869141 10.17830078 -0.86869141 10.17830078 -1.30859375 11.69921875 C-1.53675781 12.45847656 -1.76492187 13.21773438 -2 14 C-2.33 14 -2.66 14 -3 14 C-3.29341888 8.32723489 -3.00559652 5.00932754 0 0 Z " fill="#202DA1" transform="translate(145,377)"/>
<path d="M0 0 C0.33 0.99 0.66 1.98 1 3 C-0.09445838 3.86657116 -1.20097781 4.71792724 -2.3125 5.5625 C-2.92738281 6.03816406 -3.54226563 6.51382813 -4.17578125 7.00390625 C-4.77777344 7.33261719 -5.37976563 7.66132812 -6 8 C-6.99 7.67 -7.98 7.34 -9 7 C-6.03 4.69 -3.06 2.38 0 0 Z " fill="#2633A5" transform="translate(743,789)"/>
<path d="M0 0 C1 3 1 3 0.07421875 5.04296875 C-0.61220703 6.10451172 -0.61220703 6.10451172 -1.3125 7.1875 C-1.76238281 7.90292969 -2.21226562 8.61835937 -2.67578125 9.35546875 C-3.11277344 9.89816406 -3.54976562 10.44085937 -4 11 C-4.66 11 -5.32 11 -6 11 C-4.54955729 6.89041233 -2.48889248 3.56741255 0 0 Z " fill="#232FA1" transform="translate(836,688)"/>
<path d="M0 0 C0.66 0 1.32 0 2 0 C1.71758359 1.46015291 1.42373386 2.91809793 1.125 4.375 C0.96257813 5.18710937 0.80015625 5.99921875 0.6328125 6.8359375 C0 9 0 9 -2 11 C-3.13643966 7.59068103 -2.86747764 6.99664544 -1.5625 3.8125 C-1.13130859 2.73935547 -1.13130859 2.73935547 -0.69140625 1.64453125 C-0.46324219 1.10183594 -0.23507812 0.55914063 0 0 Z " fill="#2F3CAB" transform="translate(873,611)"/>
<path d="M0 0 C-1.45264038 0.8638129 -2.9123163 1.71580454 -4.375 2.5625 C-5.59316406 3.27599609 -5.59316406 3.27599609 -6.8359375 4.00390625 C-7.55007813 4.33261719 -8.26421875 4.66132813 -9 5 C-9.66 4.67 -10.32 4.34 -11 4 C-7.51147246 0.16261971 -5.09041622 -1.48780432 0 0 Z " fill="#2431A5" transform="translate(330,156)"/>
<path d="M0 0 C-2.44579177 2.30925485 -3.59442134 2.99001814 -7.015625 3.07421875 C-8.08296875 2.94660156 -9.1503125 2.81898437 -10.25 2.6875 C-11.32765625 2.56761719 -12.4053125 2.44773437 -13.515625 2.32421875 C-14.33546875 2.21722656 -15.1553125 2.11023438 -16 2 C-16 1.67 -16 1.34 -16 1 C-10.59255982 0.22750855 -5.46137814 -0.09752461 0 0 Z " fill="#4B58BD" transform="translate(480,109)"/>
<path d="M0 0 C-2.55068845 2.35448165 -3.71017358 2.98327924 -7.25 3.1875 C-8.1575 3.125625 -9.065 3.06375 -10 3 C-10.33 2.34 -10.66 1.68 -11 1 C-7.26562152 0.12132271 -3.83225427 -0.08912219 0 0 Z " fill="#2634A7" transform="translate(590,860)"/>
<path d="M0 0 C3.48331435 3.01887244 4.79157144 5.56909529 6 10 C3 9 3 9 1.3125 6.125 C0 3 0 3 0 0 Z " fill="#2531A1" transform="translate(174,664)"/>
<path d="M0 0 C0.66 0 1.32 0 2 0 C1.54917531 1.46067199 1.08906463 2.91848032 0.625 4.375 C0.36976563 5.18710937 0.11453125 5.99921875 -0.1484375 6.8359375 C-1 9 -1 9 -3 11 C-2.53199289 6.94393835 -2.12046792 3.53411321 0 0 Z " fill="#2431A2" transform="translate(163,327)"/>
<path d="M0 0 C4.24846075 0.47205119 6.26819288 2.88877522 9 6 C9 6.66 9 7.32 9 8 C7 8 7 8 4.5 5.6875 C2 3 2 3 0 0 Z " fill="#212FA2" transform="translate(776,214)"/>
<path d="M0 0 C0.33 0.99 0.66 1.98 1 3 C-0.40445835 5.2636564 -2.1967913 7.0208685 -4 9 C-4.99 8.67 -5.98 8.34 -7 8 C-4.69 5.36 -2.38 2.72 0 0 Z " fill="#232FA1" transform="translate(804,731)"/>
<path d="M0 0 C2.45823172 3.68734758 3.01242616 6.69699971 4 11 C3.01 10.67 2.02 10.34 1 10 C-0.1577506 6.52674819 -0.06866652 3.63932552 0 0 Z " fill="#232F9E" transform="translate(141,579)"/>
<path d="M0 0 C0.33 0 0.66 0 1 0 C1.125 7.625 1.125 7.625 0 11 C-0.66 11 -1.32 11 -2 11 C-1.125 3.375 -1.125 3.375 0 0 Z " fill="#2532A1" transform="translate(884,574)"/>
<path d="M0 0 C2.17766075 4.35532149 2.03039555 5.46625958 1 10 C0.34 10 -0.32 10 -1 10 C-1.33 10.66 -1.66 11.32 -2 12 C-1.34 8.04 -0.68 4.08 0 0 Z " fill="#3645B2" transform="translate(138,398)"/>
<path d="M0 0 C3.12270126 2.51830747 3.94523098 3.7261549 4.75 7.75 C4.8325 8.8225 4.915 9.895 5 11 C2.03947516 7.63576723 1.07710178 4.30840713 0 0 Z " fill="#2633A3" transform="translate(864,339)"/>
<path d="M0 0 C0 4.38968456 -2.12805101 5.76905739 -5 9 C-5.33 8.01 -5.66 7.02 -6 6 C-2.83636364 1.41818182 -2.83636364 1.41818182 0 0 Z " fill="#202E9F" transform="translate(206,258)"/>
<path d="M0 0 C1.32 0.33 2.64 0.66 4 1 C1.69 2.65 -0.62 4.3 -3 6 C-3.66 5.67 -4.32 5.34 -5 5 C-2.75 2.4375 -2.75 2.4375 0 0 Z " fill="#2734A6" transform="translate(300,170)"/>
<path d="M0 0 C0 0.66 0 1.32 0 2 C-2.8125 4.6875 -2.8125 4.6875 -6 7 C-6.99 6.67 -7.98 6.34 -9 6 C-7.8803014 4.99406757 -6.7540588 3.9954151 -5.625 3 C-4.68527344 2.1646875 -4.68527344 2.1646875 -3.7265625 1.3125 C-2 0 -2 0 0 0 Z " fill="#2532A4" transform="translate(773,766)"/>
<path d="M0 0 C0.66 0.33 1.32 0.66 2 1 C0.68 3.31 -0.64 5.62 -2 8 C-2.66 7.67 -3.32 7.34 -4 7 C-2.79618552 4.50638429 -1.54571278 2.31856917 0 0 Z " fill="#E5E7F5" transform="translate(649,507)"/>
<path d="M0 0 C0.33 0.66 0.66 1.32 1 2 C-1.31944788 5.47917182 -3.26369964 6.29429766 -7 8 C-5.50902342 4.2047869 -3.24299151 2.38957269 0 0 Z " fill="#141DA3" transform="translate(508,456)"/>
<path d="M0 0 C2.74277578 3.19990508 4.6302836 6.00499382 6 10 C3 9 3 9 1.3125 6.6875 C0 4 0 4 0 0 Z " fill="#2C39A7" transform="translate(843,295)"/>
<path d="M0 0 C0.99 0.33 1.98 0.66 3 1 C0.36 2.98 -2.28 4.96 -5 7 C-5 6.01 -5 5.02 -5 4 C-2.6875 1.75 -2.6875 1.75 0 0 Z " fill="#212FA2" transform="translate(270,192)"/>
<path d="M0 0 C-5.2734375 3.22265625 -5.2734375 3.22265625 -7 4 C-7.66 3.67 -8.32 3.34 -9 3 C-5.83583464 -0.30799106 -4.50236011 -1.35070803 0 0 Z " fill="#2432A5" transform="translate(343,149)"/>
<path d="M0 0 C6.75 0.875 6.75 0.875 9 2 C9 2.66 9 3.32 9 4 C3.46153846 3.38461538 3.46153846 3.38461538 1.125 1.4375 C0.75375 0.963125 0.3825 0.48875 0 0 Z " fill="#2935A8" transform="translate(648,134)"/>
<path d="M0 0 C0 0.66 0 1.32 0 2 C-3.47325181 3.1577506 -6.36067448 3.06866652 -10 3 C-6.26223701 0.50815801 -4.5227786 0 0 0 Z " fill="#2432A6" transform="translate(622,852)"/>
<path d="M0 0 C0.6875 1.6875 0.6875 1.6875 1 4 C-0.3125 6.75 -0.3125 6.75 -2 9 C-2.66 9 -3.32 9 -4 9 C-2.94124926 5.59687262 -1.99097846 2.98646769 0 0 Z " fill="#2632A2" transform="translate(851,662)"/>
<path d="M0 0 C4.67692308 1.47692308 4.67692308 1.47692308 6.3125 4.125 C6.539375 4.74375 6.76625 5.3625 7 6 C4.50638429 4.79618552 2.31856917 3.54571278 0 2 C0 1.34 0 0.68 0 0 Z " fill="#2330A5" transform="translate(750,191)"/>
<path d="M0 0 C-0.33 0.66 -0.66 1.32 -1 2 C-3.97 2 -6.94 2 -10 2 C-3.6 -1.2 -3.6 -1.2 0 0 Z " fill="#2631A4" transform="translate(601,858)"/>
<path d="M0 0 C0.66 0 1.32 0 2 0 C0.79618552 2.49361571 -0.45428722 4.68143083 -2 7 C-2.99 6.67 -3.98 6.34 -5 6 C-3.38405168 3.95880212 -1.7143618 1.95927063 0 0 Z " fill="#232FA0" transform="translate(795,741)"/>
<path d="M0 0 C1.9375 0.25 1.9375 0.25 4 1 C4.66 1.99 5.32 2.98 6 4 C5.67 4.99 5.34 5.98 5 7 C3.5 5.625 3.5 5.625 2 4 C2 3.34 2 2.68 2 2 C1.01 1.67 0.02 1.34 -1 1 C-0.67 0.67 -0.34 0.34 0 0 Z " fill="#3542AB" transform="translate(221,734)"/>
<path d="M0 0 C2.64 0.33 5.28 0.66 8 1 C7.67 1.99 7.34 2.98 7 4 C4.69 3.01 2.38 2.02 0 1 C0 0.67 0 0.34 0 0 Z " fill="#2633A7" transform="translate(639,131)"/>
<path d="M0 0 C6.52307692 -0.36923077 6.52307692 -0.36923077 8.9375 1.5 C9.288125 1.995 9.63875 2.49 10 3 C2.25 2.25 2.25 2.25 0 0 Z " fill="#1E2BA1" transform="translate(606,121)"/>
<path d="M0 0 C1.65 0 3.3 0 5 0 C4.01 0.99 3.02 1.98 2 3 C1.34 2.67 0.68 2.34 0 2 C0 1.34 0 0.68 0 0 Z " fill="#4754BB" transform="translate(323,152)"/>
<path d="M0 0 C2.64 0 5.28 0 8 0 C8 0.33 8 0.66 8 1 C5.36 1 2.72 1 0 1 C0 0.67 0 0.34 0 0 Z " fill="#4652BC" transform="translate(496,871)"/>
<path d="M0 0 C1.98 0 3.96 0 6 0 C5.67 0.66 5.34 1.32 5 2 C3.35 1.67 1.7 1.34 0 1 C0 0.67 0 0.34 0 0 Z " fill="#4852BC" transform="translate(479,870)"/>
<path d="M0 0 C1.485 0.99 1.485 0.99 3 2 C3 2.66 3 3.32 3 4 C2.34 4 1.68 4 1 4 C0.67 2.68 0.34 1.36 0 0 Z " fill="#4852B8" transform="translate(176,674)"/>
<path d="M0 0 C0.33 0 0.66 0 1 0 C1 2.31 1 4.62 1 7 C0.67 7 0.34 7 0 7 C0 4.69 0 2.38 0 0 Z " fill="#4A56BB" transform="translate(128,442)"/>
<path d="M0 0 C1.65 0 3.3 0 5 0 C4.01 0.66 3.02 1.32 2 2 C1.34 1.34 0.68 0.68 0 0 Z " fill="#4853BA" transform="translate(471,869)"/>
<path d="M0 0 C0.99 0.33 1.98 0.66 3 1 C2.67 1.66 2.34 2.32 2 3 C1.01 2.34 0.02 1.68 -1 1 C-0.67 0.67 -0.34 0.34 0 0 Z " fill="#4954BC" transform="translate(353,836)"/>
<path d="M0 0 C1.98 0.99 1.98 0.99 4 2 C3.01 2.495 3.01 2.495 2 3 C1.34 2.67 0.68 2.34 0 2 C0 1.34 0 0.68 0 0 Z " fill="#4851B7" transform="translate(297,804)"/>
<path d="M0 0 C1.485 0.99 1.485 0.99 3 2 C2.01 2.33 1.02 2.66 0 3 C0 2.01 0 1.02 0 0 Z " fill="#4753B8" transform="translate(266,781)"/>
<path d="M0 0 C0.66 0.66 1.32 1.32 2 2 C1.67 2.99 1.34 3.98 1 5 C0.67 3.35 0.34 1.7 0 0 Z " fill="#4A55B8" transform="translate(136,573)"/>
<path d="M0 0 C0.66 1.32 1.32 2.64 2 4 C1.01 4.495 1.01 4.495 0 5 C0 3.35 0 1.7 0 0 Z " fill="#4854B8" transform="translate(184,280)"/>
<path d="M0 0 C1.485 0.99 1.485 0.99 3 2 C1.68 2.33 0.36 2.66 -1 3 C-0.67 2.01 -0.34 1.02 0 0 Z " fill="#4653BC" transform="translate(338,145)"/>
<path d="M0 0 C0.99 0.33 1.98 0.66 3 1 C2.01 1.33 1.02 1.66 0 2 C0 1.34 0 0.68 0 0 Z " fill="#4854B9" transform="translate(200,712)"/>
<path d="M0 0 C0.33 1.32 0.66 2.64 1 4 C0.34 3.34 -0.32 2.68 -1 2 C-0.67 1.34 -0.34 0.68 0 0 Z " fill="#4B57B9" transform="translate(130,542)"/>
<path d="M0 0 C0.66 0.33 1.32 0.66 2 1 C1.01 1.66 0.02 2.32 -1 3 C-0.67 2.01 -0.34 1.02 0 0 Z " fill="#4A54B8" transform="translate(153,336)"/>
<path d="M0 0 C1.32 0.33 2.64 0.66 4 1 C3.01 1.495 3.01 1.495 2 2 C1.34 1.34 0.68 0.68 0 0 Z " fill="#4551BA" transform="translate(708,160)"/>
<path d="M0 0 C1.485 0.99 1.485 0.99 3 2 C1.68 1.67 0.36 1.34 -1 1 C-0.67 0.67 -0.34 0.34 0 0 Z " fill="#4755BB" transform="translate(436,112)"/>
<path d="M0 0 C1.65 0 3.3 0 5 0 C5 0.33 5 0.66 5 1 C3.35 1 1.7 1 0 1 C0 0.67 0 0.34 0 0 Z " fill="#4A58BD" transform="translate(440,112)"/>
<path d="M0 0 C0.99 0 1.98 0 3 0 C2.67 0.66 2.34 1.32 2 2 C1.34 1.34 0.68 0.68 0 0 Z " fill="#4954B9" transform="translate(456,867)"/>
<path d="M0 0 C0.99 0.33 1.98 0.66 3 1 C2.01 1 1.02 1 0 1 C0 0.67 0 0.34 0 0 Z " fill="#4955BC" transform="translate(376,846)"/>
<path d="M0 0 C1.485 0.99 1.485 0.99 3 2 C2.01 2 1.02 2 0 2 C0 1.34 0 0.68 0 0 Z " fill="#4753B6" transform="translate(312,814)"/>
<path d="M0 0 C0.66 0.66 1.32 1.32 2 2 C1.01 1.67 0.02 1.34 -1 1 C-0.67 0.67 -0.34 0.34 0 0 Z " fill="#4955B6" transform="translate(233,750)"/>
<path d="M0 0 C1 4 1 4 1 4 Z " fill="#4C57BB" transform="translate(128,530)"/>
<path d="M0 0 C1 4 1 4 1 4 Z " fill="#4957C0" transform="translate(895,440)"/>
<path d="M0 0 C0.66 0.33 1.32 0.66 2 1 C1.01 1 0.02 1 -1 1 C-0.67 0.67 -0.34 0.34 0 0 Z " fill="#4552BA" transform="translate(298,169)"/>
<path d="M0 0 C3 1 3 1 3 1 Z " fill="#4854BC" transform="translate(539,870)"/>
<path d="M0 0 C0.66 0.66 1.32 1.32 2 2 C1.34 2 0.68 2 0 2 C0 1.34 0 0.68 0 0 Z " fill="#4753BC" transform="translate(432,862)"/>
<path d="M0 0 C3 1 3 1 3 1 Z " fill="#4852BC" transform="translate(425,861)"/>
<path d="M0 0 C3 1 3 1 3 1 Z " fill="#4855BB" transform="translate(620,855)"/>
<path d="M0 0 C3 1 3 1 3 1 Z " fill="#4955BC" transform="translate(402,855)"/>
<path d="M0 0 C0.99 0.495 0.99 0.495 2 1 C1.01 1.495 1.01 1.495 0 2 C0 1.34 0 0.68 0 0 Z " fill="#4A55BA" transform="translate(256,773)"/>
<path d="M0 0 C0.99 0.495 0.99 0.495 2 1 C1.01 1.495 1.01 1.495 0 2 C0 1.34 0 0.68 0 0 Z " fill="#4854B9" transform="translate(224,741)"/>
<path d="M0 0 C0.66 0.66 1.32 1.32 2 2 C1.34 2 0.68 2 0 2 C0 1.34 0 0.68 0 0 Z " fill="#4A55BB" transform="translate(192,702)"/>
<path d="M0 0 C0.66 0.66 1.32 1.32 2 2 C1.34 2 0.68 2 0 2 C0 1.34 0 0.68 0 0 Z " fill="#4853B8" transform="translate(176,678)"/>
<path d="" fill="#4B56B8" transform="translate(0,0)"/>
<path d="M0 0 C0.66 0 1.32 0 2 0 C1.67 0.66 1.34 1.32 1 2 C0.67 1.34 0.34 0.68 0 0 Z " fill="#4855BA" transform="translate(130,548)"/>
<path d="M0 0 C0.99 0.495 0.99 0.495 2 1 C1.01 1.495 1.01 1.495 0 2 C0 1.34 0 0.68 0 0 Z " fill="#4956BC" transform="translate(894,538)"/>
<path d="" fill="#4752B7" transform="translate(0,0)"/>
<path d="" fill="#4855BD" transform="translate(0,0)"/>
<path d="" fill="#4A56BB" transform="translate(0,0)"/>
<path d="" fill="#4653B6" transform="translate(0,0)"/>
<path d="" fill="#4853BA" transform="translate(0,0)"/>
<path d="" fill="#4855B9" transform="translate(0,0)"/>
<path d="M0 0 C0.33 0.66 0.66 1.32 1 2 C0.34 1.67 -0.32 1.34 -1 1 C-0.67 0.67 -0.34 0.34 0 0 Z " fill="#4552BA" transform="translate(342,144)"/>
<path d="M0 0 C0.66 0 1.32 0 2 0 C1.67 0.66 1.34 1.32 1 2 C0.67 1.34 0.34 0.68 0 0 Z " fill="#4351BA" transform="translate(662,136)"/>
<path d="M0 0 C3 1 3 1 3 1 Z " fill="#4755BB" transform="translate(360,136)"/>
<path d="M0 0 C3 1 3 1 3 1 Z " fill="#4957BB" transform="translate(407,120)"/>
<path d="M0 0 C2 1 2 1 2 1 Z " fill="#4854BC" transform="translate(532,871)"/>
<path d="M0 0 C2 1 2 1 2 1 Z " fill="#4853BB" transform="translate(524,871)"/>
<path d="M0 0 C2 1 2 1 2 1 Z " fill="#4753BA" transform="translate(516,871)"/>
<path d="M0 0 C2 1 2 1 2 1 Z " fill="#4551BA" transform="translate(508,871)"/>
<path d="M0 0 C2 1 2 1 2 1 Z " fill="#4652BB" transform="translate(505,871)"/>
<path d="M0 0 C2 1 2 1 2 1 Z " fill="#4B56BE" transform="translate(551,869)"/>
<path d="M0 0 C2 1 2 1 2 1 Z " fill="#4954BA" transform="translate(566,867)"/>
<path d="M0 0 C2 1 2 1 2 1 Z " fill="#4C56BA" transform="translate(606,859)"/>
<path d="M0 0 C2 1 2 1 2 1 Z " fill="#4852BC" transform="translate(399,854)"/>
<path d="M0 0 C2 1 2 1 2 1 Z " fill="#4751B8" transform="translate(394,852)"/>
<path d="M0 0 C2 1 2 1 2 1 Z " fill="#4A54BC" transform="translate(644,847)"/>
<path d="M0 0 C2 1 2 1 2 1 Z " fill="#4A54BB" transform="translate(379,847)"/>
<path d="M0 0 C2 1 2 1 2 1 Z " fill="#4752B7" transform="translate(374,845)"/>
<path d="" fill="#4A53B9" transform="translate(0,0)"/>
<path d="" fill="#4751B8" transform="translate(0,0)"/>
<path d="" fill="#4852B9" transform="translate(0,0)"/>
<path d="" fill="#4A54BA" transform="translate(0,0)"/>
<path d="" fill="#4654BD" transform="translate(0,0)"/>
<path d="M0 0 C2 1 2 1 2 1 Z " fill="#4A57BE" transform="translate(869,631)"/>
<path d="M0 0 C2 1 2 1 2 1 Z " fill="#4B55BB" transform="translate(877,614)"/>
<path d="" fill="#4A57C0" transform="translate(0,0)"/>
<path d="M0 0 C2 1 2 1 2 1 Z " fill="#4A56B9" transform="translate(128,536)"/>
<path d="" fill="#4B59BC" transform="translate(0,0)"/>
<path d="" fill="#4C57BB" transform="translate(0,0)"/>
<path d="" fill="#4550B8" transform="translate(0,0)"/>
<path d="" fill="#4A54BD" transform="translate(0,0)"/>
<path d="" fill="#4A54BC" transform="translate(0,0)"/>
<path d="" fill="#4855BC" transform="translate(0,0)"/>
<path d="" fill="#4856BD" transform="translate(0,0)"/>
<path d="" fill="#4A56B8" transform="translate(0,0)"/>
<path d="" fill="#4654B8" transform="translate(0,0)"/>
<path d="" fill="#4756B9" transform="translate(0,0)"/>
<path d="" fill="#4B54B8" transform="translate(0,0)"/>
<path d="" fill="#4955BA" transform="translate(0,0)"/>
<path d="" fill="#4957BB" transform="translate(0,0)"/>
<path d="" fill="#4955BA" transform="translate(0,0)"/>
<path d="" fill="#4B53B7" transform="translate(0,0)"/>
<path d="" fill="#4A54B6" transform="translate(0,0)"/>
<path d="M0 0 C2 1 2 1 2 1 Z " fill="#4854B5" transform="translate(196,265)"/>
<path d="M0 0 C2 1 2 1 2 1 Z " fill="#4853B6" transform="translate(193,264)"/>
<path d="M0 0 C2 1 2 1 2 1 Z " fill="#4855B8" transform="translate(209,248)"/>
<path d="" fill="#4753B7" transform="translate(0,0)"/>
<path d="M0 0 C2 1 2 1 2 1 Z " fill="#4852B7" transform="translate(733,176)"/>
<path d="M0 0 C2 1 2 1 2 1 Z " fill="#4753BB" transform="translate(722,168)"/>
<path d="M0 0 C2 1 2 1 2 1 Z " fill="#4756BA" transform="translate(313,160)"/>
<path d="M0 0 C2 1 2 1 2 1 Z " fill="#4752B8" transform="translate(694,152)"/>
<path d="M0 0 C2 1 2 1 2 1 Z " fill="#4854BA" transform="translate(682,146)"/>
<path d="" fill="#4955BC" transform="translate(0,0)"/>
<path d="M0 0 C2 1 2 1 2 1 Z " fill="#4553B7" transform="translate(678,144)"/>
<path d="M0 0 C2 1 2 1 2 1 Z " fill="#4853BD" transform="translate(645,128)"/>
<path d="M0 0 C2 1 2 1 2 1 Z " fill="#4954B9" transform="translate(627,124)"/>
<path d="M0 0 C2 1 2 1 2 1 Z " fill="#4A56BC" transform="translate(401,122)"/>
<path d="M0 0 C2 1 2 1 2 1 Z " fill="#4654BA" transform="translate(405,121)"/>
<path d="M0 0 C2 1 2 1 2 1 Z " fill="#4350B4" transform="translate(614,120)"/>
<path d="" fill="#4956BC" transform="translate(0,0)"/>
<path d="M0 0 C2 1 2 1 2 1 Z " fill="#4753BA" transform="translate(579,112)"/>
<path d="M0 0 C2 1 2 1 2 1 Z " fill="#4C59C0" transform="translate(483,106)"/>
<path d="" fill="#6B5F84" transform="translate(0,0)"/>
<path d="" fill="#4956BC" transform="translate(0,0)"/>
<path d="" fill="#4656BB" transform="translate(0,0)"/>
<path d="" fill="#4452BA" transform="translate(0,0)"/>
<path d="" fill="#4A53BB" transform="translate(0,0)"/>
<path d="" fill="#4853BD" transform="translate(0,0)"/>
<path d="" fill="#4552B9" transform="translate(0,0)"/>
<path d="" fill="#4856BD" transform="translate(0,0)"/>
<path d="" fill="#4953B9" transform="translate(0,0)"/>
<path d="" fill="#4451B9" transform="translate(0,0)"/>
<path d="" fill="#4B54B9" transform="translate(0,0)"/>
<path d="" fill="#4953B7" transform="translate(0,0)"/>
<path d="" fill="#4856BC" transform="translate(0,0)"/>
<path d="" fill="#4854B8" transform="translate(0,0)"/>
<path d="" fill="#4A55BD" transform="translate(0,0)"/>
<path d="" fill="#4853BA" transform="translate(0,0)"/>
<path d="" fill="#4855BE" transform="translate(0,0)"/>
<path d="" fill="#4A57B9" transform="translate(0,0)"/>
<path d="" fill="#4A53BA" transform="translate(0,0)"/>
<path d="" fill="#4B53B8" transform="translate(0,0)"/>
<path d="" fill="#4653B8" transform="translate(0,0)"/>
<path d="" fill="#4751B9" transform="translate(0,0)"/>
<path d="" fill="#4654BB" transform="translate(0,0)"/>
<path d="" fill="#4954B8" transform="translate(0,0)"/>
<path d="" fill="#4955BC" transform="translate(0,0)"/>
<path d="" fill="#4955BE" transform="translate(0,0)"/>
<path d="" fill="#4A54BC" transform="translate(0,0)"/>
<path d="" fill="#4955BE" transform="translate(0,0)"/>
<path d="" fill="#4952B4" transform="translate(0,0)"/>
<path d="" fill="#4953BD" transform="translate(0,0)"/>
<path d="" fill="#4854BC" transform="translate(0,0)"/>
<path d="" fill="#4955BD" transform="translate(0,0)"/>
<path d="" fill="#4954BB" transform="translate(0,0)"/>
<path d="" fill="#4C53B8" transform="translate(0,0)"/>
<path d="" fill="#4A54B9" transform="translate(0,0)"/>
<path d="" fill="#4953BD" transform="translate(0,0)"/>
<path d="" fill="#4350BC" transform="translate(0,0)"/>
<path d="" fill="#4855BC" transform="translate(0,0)"/>
<path d="" fill="#4954BB" transform="translate(0,0)"/>
<path d="" fill="#4652B7" transform="translate(0,0)"/>
<path d="" fill="#4953B6" transform="translate(0,0)"/>
<path d="" fill="#4954BB" transform="translate(0,0)"/>
<path d="" fill="#4851B7" transform="translate(0,0)"/>
<path d="" fill="#4951B7" transform="translate(0,0)"/>
<path d="" fill="#4954BA" transform="translate(0,0)"/>
<path d="" fill="#4654BB" transform="translate(0,0)"/>
<path d="" fill="#4753B6" transform="translate(0,0)"/>
<path d="" fill="#4351B8" transform="translate(0,0)"/>
<path d="" fill="#4954B9" transform="translate(0,0)"/>
<path d="" fill="#454FBA" transform="translate(0,0)"/>
<path d="" fill="#4954BA" transform="translate(0,0)"/>
<path d="" fill="#4A55BB" transform="translate(0,0)"/>
<path d="" fill="#4854BD" transform="translate(0,0)"/>
<path d="" fill="#4A54BA" transform="translate(0,0)"/>
<path d="" fill="#4551B5" transform="translate(0,0)"/>
<path d="" fill="#4552B6" transform="translate(0,0)"/>
<path d="" fill="#4754BA" transform="translate(0,0)"/>
<path d="" fill="#4A56BB" transform="translate(0,0)"/>
<path d="" fill="#4B54B9" transform="translate(0,0)"/>
<path d="" fill="#4855B8" transform="translate(0,0)"/>
<path d="" fill="#4853BA" transform="translate(0,0)"/>
<path d="" fill="#4954B6" transform="translate(0,0)"/>
<path d="" fill="#4B56B8" transform="translate(0,0)"/>
<path d="" fill="#4955B8" transform="translate(0,0)"/>
<path d="" fill="#4550B5" transform="translate(0,0)"/>
<path d="" fill="#4752B6" transform="translate(0,0)"/>
<path d="" fill="#4753BB" transform="translate(0,0)"/>
<path d="" fill="#4952B8" transform="translate(0,0)"/>
<path d="" fill="#4650B5" transform="translate(0,0)"/>
<path d="" fill="#4754B9" transform="translate(0,0)"/>
<path d="" fill="#4853BB" transform="translate(0,0)"/>
<path d="" fill="#4A54B8" transform="translate(0,0)"/>
<path d="" fill="#4652B6" transform="translate(0,0)"/>
<path d="" fill="#4A54B8" transform="translate(0,0)"/>
<path d="" fill="#4952B9" transform="translate(0,0)"/>
<path d="" fill="#4B56BA" transform="translate(0,0)"/>
<path d="" fill="#4A55BA" transform="translate(0,0)"/>
<path d="" fill="#4A54B9" transform="translate(0,0)"/>
<path d="" fill="#4852B7" transform="translate(0,0)"/>
<path d="" fill="#4553B7" transform="translate(0,0)"/>
<path d="" fill="#4954B7" transform="translate(0,0)"/>
<path d="" fill="#4853B9" transform="translate(0,0)"/>
<path d="" fill="#4B55BA" transform="translate(0,0)"/>
<path d="" fill="#4953B8" transform="translate(0,0)"/>
<path d="" fill="#4754BA" transform="translate(0,0)"/>
<path d="" fill="#4954BB" transform="translate(0,0)"/>
<path d="" fill="#4653B7" transform="translate(0,0)"/>
<path d="" fill="#4754BB" transform="translate(0,0)"/>
<path d="" fill="#4B55B7" transform="translate(0,0)"/>
<path d="" fill="#4851B8" transform="translate(0,0)"/>
<path d="" fill="#4B57B7" transform="translate(0,0)"/>
<path d="" fill="#4753BB" transform="translate(0,0)"/>
<path d="" fill="#4654BA" transform="translate(0,0)"/>
<path d="" fill="#4853B7" transform="translate(0,0)"/>
<path d="" fill="#4A57BA" transform="translate(0,0)"/>
<path d="" fill="#4752B9" transform="translate(0,0)"/>
<path d="" fill="#4654BA" transform="translate(0,0)"/>
<path d="" fill="#4855BA" transform="translate(0,0)"/>
<path d="" fill="#4C57B9" transform="translate(0,0)"/>
<path d="" fill="#4955BC" transform="translate(0,0)"/>
<path d="" fill="#4752BA" transform="translate(0,0)"/>
<path d="" fill="#4955BA" transform="translate(0,0)"/>
<path d="" fill="#4653BB" transform="translate(0,0)"/>
<path d="" fill="#4652B7" transform="translate(0,0)"/>
<path d="" fill="#4C57B8" transform="translate(0,0)"/>
<path d="" fill="#4654B5" transform="translate(0,0)"/>
<path d="" fill="#4A56B8" transform="translate(0,0)"/>
<path d="" fill="#4B58BA" transform="translate(0,0)"/>
<path d="" fill="#4A55BB" transform="translate(0,0)"/>
<path d="" fill="#4A57BC" transform="translate(0,0)"/>
<path d="" fill="#4B55BA" transform="translate(0,0)"/>
<path d="" fill="#4B54BB" transform="translate(0,0)"/>
<path d="" fill="#4954B7" transform="translate(0,0)"/>
<path d="" fill="#4A54B9" transform="translate(0,0)"/>
<path d="" fill="#4856BC" transform="translate(0,0)"/>
<path d="" fill="#4B56BB" transform="translate(0,0)"/>
<path d="" fill="#4B56B7" transform="translate(0,0)"/>
<path d="" fill="#4750B5" transform="translate(0,0)"/>
<path d="" fill="#4954BA" transform="translate(0,0)"/>
<path d="" fill="#4C56B8" transform="translate(0,0)"/>
<path d="" fill="#4C56B7" transform="translate(0,0)"/>
<path d="" fill="#4A55BE" transform="translate(0,0)"/>
<path d="" fill="#4A56BE" transform="translate(0,0)"/>
<path d="" fill="#4854BB" transform="translate(0,0)"/>
<path d="" fill="#4955B9" transform="translate(0,0)"/>
<path d="" fill="#4B55BB" transform="translate(0,0)"/>
<path d="" fill="#4551B9" transform="translate(0,0)"/>
<path d="" fill="#4854B9" transform="translate(0,0)"/>
<path d="" fill="#4A56B8" transform="translate(0,0)"/>
<path d="" fill="#4D56B8" transform="translate(0,0)"/>
<path d="" fill="#4C58BF" transform="translate(0,0)"/>
<path d="" fill="#4C56BA" transform="translate(0,0)"/>
<path d="" fill="#4C57BC" transform="translate(0,0)"/>
<path d="" fill="#4855BC" transform="translate(0,0)"/>
<path d="" fill="#4D59BE" transform="translate(0,0)"/>
<path d="" fill="#4C58BD" transform="translate(0,0)"/>
<path d="" fill="#4B56BD" transform="translate(0,0)"/>
<path d="" fill="#4A55BE" transform="translate(0,0)"/>
<path d="" fill="#4D58BF" transform="translate(0,0)"/>
<path d="" fill="#4B57BB" transform="translate(0,0)"/>
<path d="" fill="#4C59BD" transform="translate(0,0)"/>
<path d="" fill="#4D55BA" transform="translate(0,0)"/>
<path d="" fill="#4C56BB" transform="translate(0,0)"/>
<path d="" fill="#4852B8" transform="translate(0,0)"/>
<path d="" fill="#4A55BA" transform="translate(0,0)"/>
<path d="" fill="#4A55BB" transform="translate(0,0)"/>
<path d="" fill="#4854BB" transform="translate(0,0)"/>
<path d="" fill="#4753B9" transform="translate(0,0)"/>
<path d="" fill="#4857BB" transform="translate(0,0)"/>
<path d="" fill="#4C57BD" transform="translate(0,0)"/>
<path d="" fill="#4652B5" transform="translate(0,0)"/>
<path d="" fill="#4B54B7" transform="translate(0,0)"/>
<path d="" fill="#4954B9" transform="translate(0,0)"/>
<path d="" fill="#4B55BE" transform="translate(0,0)"/>
<path d="" fill="#4753B9" transform="translate(0,0)"/>
<path d="" fill="#4A56BB" transform="translate(0,0)"/>
<path d="" fill="#4A56B8" transform="translate(0,0)"/>
<path d="" fill="#4A54B9" transform="translate(0,0)"/>
<path d="" fill="#4C58BC" transform="translate(0,0)"/>
<path d="" fill="#4A56BB" transform="translate(0,0)"/>
<path d="" fill="#4A53BD" transform="translate(0,0)"/>
<path d="" fill="#4954B8" transform="translate(0,0)"/>
<path d="" fill="#4955BB" transform="translate(0,0)"/>
<path d="" fill="#4A53BC" transform="translate(0,0)"/>
<path d="" fill="#4A54B8" transform="translate(0,0)"/>
<path d="" fill="#4B57BA" transform="translate(0,0)"/>
<path d="" fill="#4A55BC" transform="translate(0,0)"/>
<path d="" fill="#4A55B8" transform="translate(0,0)"/>
<path d="" fill="#4B55BA" transform="translate(0,0)"/>
<path d="" fill="#4B56BC" transform="translate(0,0)"/>
<path d="" fill="#4A54B7" transform="translate(0,0)"/>
<path d="" fill="#4756BB" transform="translate(0,0)"/>
<path d="" fill="#4B57BD" transform="translate(0,0)"/>
<path d="" fill="#4953B5" transform="translate(0,0)"/>
<path d="" fill="#4956B8" transform="translate(0,0)"/>
<path d="" fill="#4A57B8" transform="translate(0,0)"/>
<path d="" fill="#4955BA" transform="translate(0,0)"/>
<path d="" fill="#4955B9" transform="translate(0,0)"/>
<path d="" fill="#4A56B8" transform="translate(0,0)"/>
<path d="" fill="#4B55B5" transform="translate(0,0)"/>
<path d="" fill="#4954BC" transform="translate(0,0)"/>
<path d="" fill="#4B56B8" transform="translate(0,0)"/>
<path d="" fill="#4955B8" transform="translate(0,0)"/>
<path d="" fill="#4A54B6" transform="translate(0,0)"/>
<path d="" fill="#4754B9" transform="translate(0,0)"/>
<path d="" fill="#4755B8" transform="translate(0,0)"/>
<path d="" fill="#4954B8" transform="translate(0,0)"/>
<path d="" fill="#4655B7" transform="translate(0,0)"/>
<path d="" fill="#4A57BA" transform="translate(0,0)"/>
<path d="" fill="#4957BB" transform="translate(0,0)"/>
<path d="" fill="#4954BA" transform="translate(0,0)"/>
<path d="" fill="#4754BB" transform="translate(0,0)"/>
<path d="" fill="#4B55B9" transform="translate(0,0)"/>
<path d="" fill="#4954B8" transform="translate(0,0)"/>
<path d="" fill="#4854BC" transform="translate(0,0)"/>
<path d="" fill="#4853B7" transform="translate(0,0)"/>
<path d="" fill="#4551B8" transform="translate(0,0)"/>
<path d="" fill="#4754B7" transform="translate(0,0)"/>
<path d="" fill="#4856B8" transform="translate(0,0)"/>
<path d="" fill="#4954B8" transform="translate(0,0)"/>
<path d="" fill="#4857B8" transform="translate(0,0)"/>
<path d="" fill="#4955B9" transform="translate(0,0)"/>
<path d="" fill="#4451B4" transform="translate(0,0)"/>
<path d="" fill="#4C5AB5" transform="translate(0,0)"/>
<path d="" fill="#4855B7" transform="translate(0,0)"/>
<path d="" fill="#4651BB" transform="translate(0,0)"/>
<path d="" fill="#4955B7" transform="translate(0,0)"/>
<path d="" fill="#4750B5" transform="translate(0,0)"/>
<path d="" fill="#4754B7" transform="translate(0,0)"/>
<path d="" fill="#4955BA" transform="translate(0,0)"/>
<path d="" fill="#4654BA" transform="translate(0,0)"/>
<path d="" fill="#4754BB" transform="translate(0,0)"/>
<path d="" fill="#4B58BB" transform="translate(0,0)"/>
<path d="" fill="#4854B9" transform="translate(0,0)"/>
<path d="" fill="#4851B9" transform="translate(0,0)"/>
<path d="" fill="#4653B9" transform="translate(0,0)"/>
<path d="" fill="#4B55B7" transform="translate(0,0)"/>
<path d="" fill="#4856BA" transform="translate(0,0)"/>
<path d="" fill="#4953B9" transform="translate(0,0)"/>
<path d="" fill="#4854BA" transform="translate(0,0)"/>
<path d="" fill="#4A54B9" transform="translate(0,0)"/>
<path d="" fill="#4C55BB" transform="translate(0,0)"/>
<path d="" fill="#4955BB" transform="translate(0,0)"/>
<path d="" fill="#4554BB" transform="translate(0,0)"/>
<path d="" fill="#4955BB" transform="translate(0,0)"/>
<path d="" fill="#4C55BA" transform="translate(0,0)"/>
<path d="" fill="#4755B7" transform="translate(0,0)"/>
<path d="" fill="#4B56BB" transform="translate(0,0)"/>
<path d="" fill="#4651B8" transform="translate(0,0)"/>
<path d="" fill="#4852B9" transform="translate(0,0)"/>
<path d="" fill="#4B54BC" transform="translate(0,0)"/>
<path d="" fill="#4855BB" transform="translate(0,0)"/>
<path d="" fill="#4E5DBB" transform="translate(0,0)"/>
<path d="" fill="#4653BA" transform="translate(0,0)"/>
<path d="" fill="#4855BD" transform="translate(0,0)"/>
<path d="" fill="#4A57B9" transform="translate(0,0)"/>
<path d="" fill="#4852B9" transform="translate(0,0)"/>
<path d="" fill="#4857B9" transform="translate(0,0)"/>
<path d="" fill="#4351BA" transform="translate(0,0)"/>
<path d="" fill="#4757BA" transform="translate(0,0)"/>
<path d="" fill="#4954BC" transform="translate(0,0)"/>
<path d="" fill="#4C56BC" transform="translate(0,0)"/>
<path d="" fill="#4754BD" transform="translate(0,0)"/>
<path d="" fill="#4754BD" transform="translate(0,0)"/>
<path d="" fill="#4C56BA" transform="translate(0,0)"/>
<path d="" fill="#4B58BB" transform="translate(0,0)"/>
<path d="" fill="#4D55BA" transform="translate(0,0)"/>
<path d="" fill="#4B56B3" transform="translate(0,0)"/>
<path d="" fill="#4753BC" transform="translate(0,0)"/>
<path d="" fill="#4951BD" transform="translate(0,0)"/>
<path d="" fill="#4956BD" transform="translate(0,0)"/>
<path d="" fill="#4A55BC" transform="translate(0,0)"/>
<path d="" fill="#4853BB" transform="translate(0,0)"/>
<path d="" fill="#4B56BE" transform="translate(0,0)"/>
<path d="" fill="#4A56BC" transform="translate(0,0)"/>
<path d="" fill="#4A56BD" transform="translate(0,0)"/>
<path d="" fill="#4B56BC" transform="translate(0,0)"/>
<path d="" fill="#4754BA" transform="translate(0,0)"/>
<path d="" fill="#4A55BB" transform="translate(0,0)"/>
<path d="" fill="#4955BA" transform="translate(0,0)"/>
<path d="" fill="#4755BC" transform="translate(0,0)"/>
<path d="" fill="#4D58BD" transform="translate(0,0)"/>
<path d="" fill="#4957BD" transform="translate(0,0)"/>
<path d="" fill="#4B5AC0" transform="translate(0,0)"/>
<path d="" fill="#4C58C0" transform="translate(0,0)"/>
</svg>
